<svg id="Capa_1" data-name="Capa 1" xmlns="http://www.w3.org/2000/svg" viewBox="0 0 413.83 669.62"><defs><style>.cls-1{fill:#ff7300;fill-rule:evenodd;}</style></defs><title>icon1</title><path id="svg_2" data-name="svg 2" class="cls-1" d="M207.47,669.62c-15.33-75.25-42.36-137.87-75.09-195.91-24.29-43-52.41-82.78-78.44-124.53-8.69-13.93-16.19-28.66-24.53-43.12C12.71,277.14-.82,243.61,0,200.12c.84-42.5,13.13-76.59,30.85-104.46,29.15-45.84,78-83.43,143.49-93.3C228-5.72,278.17,7.92,313.78,28.75a201.75,201.75,0,0,1,68.77,66.54c17.88,28,30.19,61,31.23,104.08a192.42,192.42,0,0,1-8.18,59.48c-5.15,17.17-13.44,31.51-20.82,46.84-14.39,29.92-32.44,57.33-50.55,84.75C280.28,472.14,229.64,555.45,207.47,669.62Z"/><circle id="svg_4" data-name="svg 4" cx="206.91" cy="199.64" r="72.49"/></svg>